<mxfile host="app.diagrams.net" agent="Mozilla/5.0 (Windows NT 10.0; Win64; x64) AppleWebKit/537.36 (KHTML, like Gecko) Chrome/129.0.0.0 Safari/537.36" version="24.7.17">
  <diagram name="Page-1" id="90a13364-a465-7bf4-72fc-28e22215d7a0">
    <mxGraphModel dx="2884.5" dy="1053" grid="1" gridSize="10" guides="1" tooltips="1" connect="1" arrows="1" fold="1" page="1" pageScale="1.5" pageWidth="1169" pageHeight="826" background="none" math="0" shadow="0">
      <root>
        <mxCell id="0" style=";html=1;" />
        <mxCell id="1" style=";html=1;" parent="0" />
        <mxCell id="3a17f1ce550125da-17" style="edgeStyle=elbowEdgeStyle;rounded=0;html=1;startArrow=none;startFill=0;jettySize=auto;orthogonalLoop=1;fontSize=18;" parent="1" source="3a17f1ce550125da-10" edge="1">
          <mxGeometry relative="1" as="geometry">
            <Array as="points">
              <mxPoint x="1477.5" y="1030" />
            </Array>
            <mxPoint x="1477.5" y="1010" as="targetPoint" />
          </mxGeometry>
        </mxCell>
        <mxCell id="3a17f1ce550125da-5" value="ffnn.c" style="whiteSpace=wrap;html=1;shadow=1;fontSize=18;fillColor=#f5f5f5;strokeColor=#666666;" parent="1" vertex="1">
          <mxGeometry x="260" y="980" width="120" height="60" as="geometry" />
        </mxCell>
        <mxCell id="vyGlclujmhHLnjYh4SEp-7" value="" style="edgeStyle=orthogonalEdgeStyle;rounded=0;orthogonalLoop=1;jettySize=auto;html=1;" edge="1" parent="1">
          <mxGeometry relative="1" as="geometry">
            <mxPoint x="1285" y="629.9999999999998" as="sourcePoint" />
            <mxPoint x="1205" y="630.0588235294117" as="targetPoint" />
            <Array as="points">
              <mxPoint x="1245" y="630" />
              <mxPoint x="1245" y="630" />
            </Array>
          </mxGeometry>
        </mxCell>
        <mxCell id="3a17f1ce550125da-8" value="" style="whiteSpace=wrap;html=1;shadow=1;fontSize=18;fillColor=#f5f5f5;strokeColor=#666666;" parent="1" vertex="1">
          <mxGeometry x="320" y="50" width="200" height="290" as="geometry" />
        </mxCell>
        <mxCell id="3a17f1ce550125da-9" value="mat_calc.c" style="whiteSpace=wrap;html=1;shadow=1;fontSize=18;fillColor=#f5f5f5;strokeColor=#666666;" parent="1" vertex="1">
          <mxGeometry x="90" y="600" width="120" height="170" as="geometry" />
        </mxCell>
        <mxCell id="3a17f1ce550125da-10" value="DUT" style="whiteSpace=wrap;html=1;shadow=1;fontSize=18;fillColor=#f5f5f5;strokeColor=#666666;" parent="1" vertex="1">
          <mxGeometry x="1370" y="1050" width="145" height="120" as="geometry" />
        </mxCell>
        <mxCell id="3a17f1ce550125da-22" style="edgeStyle=elbowEdgeStyle;rounded=0;html=1;startArrow=none;startFill=0;jettySize=auto;orthogonalLoop=1;fontSize=18;" parent="1" source="3a17f1ce550125da-10" edge="1">
          <mxGeometry relative="1" as="geometry">
            <mxPoint x="1507.5" y="1060" as="sourcePoint" />
            <mxPoint x="1497.5" y="1010" as="targetPoint" />
            <Array as="points">
              <mxPoint x="1497.5" y="1030" />
              <mxPoint x="1477.5" y="1030" />
            </Array>
          </mxGeometry>
        </mxCell>
        <mxCell id="3a17f1ce550125da-23" style="edgeStyle=elbowEdgeStyle;rounded=0;html=1;startArrow=none;startFill=0;jettySize=auto;orthogonalLoop=1;fontSize=18;" parent="1" edge="1">
          <mxGeometry relative="1" as="geometry">
            <mxPoint x="1457.5" y="1050" as="sourcePoint" />
            <mxPoint x="1457.5" y="1010" as="targetPoint" />
            <Array as="points">
              <mxPoint x="1457.5" y="1030" />
              <mxPoint x="1457.5" y="1030" />
            </Array>
          </mxGeometry>
        </mxCell>
        <mxCell id="3a17f1ce550125da-24" style="edgeStyle=elbowEdgeStyle;rounded=0;html=1;startArrow=none;startFill=0;jettySize=auto;orthogonalLoop=1;fontSize=18;" parent="1" edge="1">
          <mxGeometry relative="1" as="geometry">
            <mxPoint x="1427.5" y="1010" as="sourcePoint" />
            <mxPoint x="1427.5" y="1050" as="targetPoint" />
            <Array as="points">
              <mxPoint x="1427.5" y="1030" />
              <mxPoint x="1457.5" y="1040" />
            </Array>
          </mxGeometry>
        </mxCell>
        <mxCell id="3a17f1ce550125da-25" style="edgeStyle=elbowEdgeStyle;rounded=0;html=1;startArrow=none;startFill=0;jettySize=auto;orthogonalLoop=1;fontSize=18;" parent="1" edge="1">
          <mxGeometry relative="1" as="geometry">
            <mxPoint x="1407.5" y="1010" as="sourcePoint" />
            <mxPoint x="1407.5" y="1050" as="targetPoint" />
            <Array as="points">
              <mxPoint x="1407.5" y="1030" />
              <mxPoint x="1437.5" y="1040" />
            </Array>
          </mxGeometry>
        </mxCell>
        <mxCell id="3a17f1ce550125da-26" style="edgeStyle=elbowEdgeStyle;rounded=0;html=1;startArrow=none;startFill=0;jettySize=auto;orthogonalLoop=1;fontSize=18;" parent="1" edge="1">
          <mxGeometry relative="1" as="geometry">
            <mxPoint x="1387.5" y="1010" as="sourcePoint" />
            <mxPoint x="1387.5" y="1050" as="targetPoint" />
            <Array as="points">
              <mxPoint x="1387.5" y="1030" />
              <mxPoint x="1417.5" y="1040" />
            </Array>
          </mxGeometry>
        </mxCell>
        <mxCell id="vyGlclujmhHLnjYh4SEp-9" value="input_vector" style="text;html=1;align=center;verticalAlign=middle;resizable=0;points=[];autosize=1;strokeColor=none;fillColor=none;" vertex="1" parent="1">
          <mxGeometry x="1200" y="630" width="90" height="30" as="geometry" />
        </mxCell>
        <mxCell id="vyGlclujmhHLnjYh4SEp-17" value="" style="group" vertex="1" connectable="0" parent="1">
          <mxGeometry x="540" y="30" width="600" height="650" as="geometry" />
        </mxCell>
        <mxCell id="vyGlclujmhHLnjYh4SEp-1" value="" style="whiteSpace=wrap;html=1;shadow=1;fontSize=18;fillColor=none;strokeColor=#666666;labelBackgroundColor=none;" vertex="1" parent="vyGlclujmhHLnjYh4SEp-17">
          <mxGeometry y="30" width="600" height="620" as="geometry" />
        </mxCell>
        <mxCell id="vyGlclujmhHLnjYh4SEp-2" value="encoder_layer.c" style="text;html=1;align=center;verticalAlign=middle;resizable=0;points=[];autosize=1;strokeColor=none;fillColor=none;spacing=2;fontSize=17;" vertex="1" parent="vyGlclujmhHLnjYh4SEp-17">
          <mxGeometry width="140" height="30" as="geometry" />
        </mxCell>
        <mxCell id="vyGlclujmhHLnjYh4SEp-25" value="" style="group" vertex="1" connectable="0" parent="vyGlclujmhHLnjYh4SEp-17">
          <mxGeometry x="160" y="369" width="280" height="220" as="geometry" />
        </mxCell>
        <mxCell id="vyGlclujmhHLnjYh4SEp-14" value="" style="group" vertex="1" connectable="0" parent="vyGlclujmhHLnjYh4SEp-25">
          <mxGeometry y="70" width="280" height="150" as="geometry" />
        </mxCell>
        <mxCell id="vyGlclujmhHLnjYh4SEp-16" value="" style="group" vertex="1" connectable="0" parent="vyGlclujmhHLnjYh4SEp-14">
          <mxGeometry width="280" height="150" as="geometry" />
        </mxCell>
        <mxCell id="3a17f1ce550125da-4" value="multi_head_attention()&lt;br&gt;&lt;br&gt;&lt;div&gt;&lt;br&gt;&lt;/div&gt;&lt;div&gt;&lt;br&gt;&lt;/div&gt;" style="whiteSpace=wrap;html=1;shadow=1;fontSize=18;fillColor=#f5f5f5;strokeColor=#666666;" parent="vyGlclujmhHLnjYh4SEp-16" vertex="1">
          <mxGeometry y="30" width="280" height="120" as="geometry" />
        </mxCell>
        <mxCell id="vyGlclujmhHLnjYh4SEp-13" value="mha.c" style="text;html=1;align=center;verticalAlign=middle;resizable=0;points=[];autosize=1;strokeColor=none;fillColor=none;spacing=2;fontSize=17;" vertex="1" parent="vyGlclujmhHLnjYh4SEp-16">
          <mxGeometry width="70" height="30" as="geometry" />
        </mxCell>
        <mxCell id="vyGlclujmhHLnjYh4SEp-15" value="scaled_dot_product_attention()" style="whiteSpace=wrap;html=1;shadow=1;fontSize=18;fillColor=#f5f5f5;strokeColor=#666666;rounded=1;" vertex="1" parent="vyGlclujmhHLnjYh4SEp-16">
          <mxGeometry x="10" y="80" width="260" height="60" as="geometry" />
        </mxCell>
        <mxCell id="vyGlclujmhHLnjYh4SEp-32" value="" style="endArrow=classic;html=1;rounded=0;exitX=0.5;exitY=1;exitDx=0;exitDy=0;entryX=0.5;entryY=1;entryDx=0;entryDy=0;" edge="1" parent="vyGlclujmhHLnjYh4SEp-17">
          <mxGeometry width="50" height="50" relative="1" as="geometry">
            <mxPoint x="210" y="650.0000000000002" as="sourcePoint" />
            <mxPoint x="210" y="589" as="targetPoint" />
          </mxGeometry>
        </mxCell>
        <mxCell id="vyGlclujmhHLnjYh4SEp-65" value="2d input" style="edgeLabel;html=1;align=center;verticalAlign=middle;resizable=0;points=[];" vertex="1" connectable="0" parent="vyGlclujmhHLnjYh4SEp-32">
          <mxGeometry x="0.0021" y="1" relative="1" as="geometry">
            <mxPoint as="offset" />
          </mxGeometry>
        </mxCell>
        <mxCell id="vyGlclujmhHLnjYh4SEp-68" value="" style="endArrow=classic;html=1;rounded=0;entryX=0.429;entryY=1.008;entryDx=0;entryDy=0;entryPerimeter=0;" edge="1" parent="vyGlclujmhHLnjYh4SEp-17">
          <mxGeometry width="50" height="50" relative="1" as="geometry">
            <mxPoint x="262" y="650" as="sourcePoint" />
            <mxPoint x="262.1199999999999" y="589.96" as="targetPoint" />
          </mxGeometry>
        </mxCell>
        <mxCell id="vyGlclujmhHLnjYh4SEp-69" value="1d mask" style="edgeLabel;html=1;align=center;verticalAlign=middle;resizable=0;points=[];" vertex="1" connectable="0" parent="vyGlclujmhHLnjYh4SEp-68">
          <mxGeometry x="0.0021" y="1" relative="1" as="geometry">
            <mxPoint as="offset" />
          </mxGeometry>
        </mxCell>
        <mxCell id="vyGlclujmhHLnjYh4SEp-70" value="" style="endArrow=classic;html=1;rounded=0;entryX=0.644;entryY=0.998;entryDx=0;entryDy=0;entryPerimeter=0;exitX=0.566;exitY=1;exitDx=0;exitDy=0;exitPerimeter=0;" edge="1" parent="vyGlclujmhHLnjYh4SEp-17">
          <mxGeometry width="50" height="50" relative="1" as="geometry">
            <mxPoint x="321.5999999999999" y="650" as="sourcePoint" />
            <mxPoint x="322.31999999999994" y="588.76" as="targetPoint" />
          </mxGeometry>
        </mxCell>
        <mxCell id="vyGlclujmhHLnjYh4SEp-71" value="int d_model" style="edgeLabel;html=1;align=center;verticalAlign=middle;resizable=0;points=[];" vertex="1" connectable="0" parent="vyGlclujmhHLnjYh4SEp-70">
          <mxGeometry x="0.0021" y="1" relative="1" as="geometry">
            <mxPoint as="offset" />
          </mxGeometry>
        </mxCell>
        <mxCell id="vyGlclujmhHLnjYh4SEp-73" value="" style="endArrow=classic;html=1;rounded=0;entryX=0.893;entryY=1.003;entryDx=0;entryDy=0;entryPerimeter=0;" edge="1" parent="vyGlclujmhHLnjYh4SEp-17">
          <mxGeometry width="50" height="50" relative="1" as="geometry">
            <mxPoint x="395" y="650" as="sourcePoint" />
            <mxPoint x="395.03999999999996" y="589.3599999999999" as="targetPoint" />
          </mxGeometry>
        </mxCell>
        <mxCell id="vyGlclujmhHLnjYh4SEp-74" value="int num_heads" style="edgeLabel;html=1;align=center;verticalAlign=middle;resizable=0;points=[];" vertex="1" connectable="0" parent="vyGlclujmhHLnjYh4SEp-73">
          <mxGeometry x="0.0021" y="1" relative="1" as="geometry">
            <mxPoint as="offset" />
          </mxGeometry>
        </mxCell>
        <mxCell id="vyGlclujmhHLnjYh4SEp-21" value="" style="shape=orEllipse;perimeter=ellipsePerimeter;whiteSpace=wrap;html=1;backgroundOutline=1;" vertex="1" parent="vyGlclujmhHLnjYh4SEp-17">
          <mxGeometry x="280" y="390" width="40" height="40" as="geometry" />
        </mxCell>
        <mxCell id="vyGlclujmhHLnjYh4SEp-20" value="" style="edgeStyle=orthogonalEdgeStyle;rounded=0;orthogonalLoop=1;jettySize=auto;html=1;entryX=0.5;entryY=1;entryDx=0;entryDy=0;" edge="1" parent="vyGlclujmhHLnjYh4SEp-17" source="3a17f1ce550125da-4" target="vyGlclujmhHLnjYh4SEp-21">
          <mxGeometry relative="1" as="geometry">
            <mxPoint x="300" y="369" as="targetPoint" />
          </mxGeometry>
        </mxCell>
        <mxCell id="vyGlclujmhHLnjYh4SEp-23" value="output" style="edgeLabel;html=1;align=center;verticalAlign=middle;resizable=0;points=[];" vertex="1" connectable="0" parent="vyGlclujmhHLnjYh4SEp-20">
          <mxGeometry x="-0.0878" y="-6" relative="1" as="geometry">
            <mxPoint x="14" y="1" as="offset" />
          </mxGeometry>
        </mxCell>
        <mxCell id="vyGlclujmhHLnjYh4SEp-81" value="" style="endArrow=classic;html=1;rounded=0;entryX=0;entryY=0.5;entryDx=0;entryDy=0;exitX=0.167;exitY=0.613;exitDx=0;exitDy=0;exitPerimeter=0;" edge="1" parent="vyGlclujmhHLnjYh4SEp-17" source="vyGlclujmhHLnjYh4SEp-1" target="vyGlclujmhHLnjYh4SEp-21">
          <mxGeometry width="50" height="50" relative="1" as="geometry">
            <mxPoint x="80" y="500" as="sourcePoint" />
            <mxPoint x="130" y="450" as="targetPoint" />
          </mxGeometry>
        </mxCell>
        <mxCell id="vyGlclujmhHLnjYh4SEp-55" style="edgeStyle=elbowEdgeStyle;rounded=0;html=1;startArrow=none;startFill=0;jettySize=auto;orthogonalLoop=1;fontSize=18;" edge="1" parent="1">
          <mxGeometry relative="1" as="geometry">
            <mxPoint x="-619.53" y="720" as="sourcePoint" />
            <mxPoint x="-619.5299999999997" y="540.0000000000002" as="targetPoint" />
            <Array as="points">
              <mxPoint x="-619.53" y="683" />
              <mxPoint x="-619.53" y="683" />
            </Array>
          </mxGeometry>
        </mxCell>
        <mxCell id="vyGlclujmhHLnjYh4SEp-59" value="mask" style="edgeLabel;html=1;align=center;verticalAlign=middle;resizable=0;points=[];" vertex="1" connectable="0" parent="vyGlclujmhHLnjYh4SEp-55">
          <mxGeometry x="0.214" relative="1" as="geometry">
            <mxPoint y="15" as="offset" />
          </mxGeometry>
        </mxCell>
        <mxCell id="vyGlclujmhHLnjYh4SEp-57" style="edgeStyle=elbowEdgeStyle;rounded=0;html=1;startArrow=none;startFill=0;jettySize=auto;orthogonalLoop=1;fontSize=18;" edge="1" parent="1">
          <mxGeometry relative="1" as="geometry">
            <mxPoint x="-639.53" y="720" as="sourcePoint" />
            <mxPoint x="-639.5299999999997" y="540.0000000000002" as="targetPoint" />
            <Array as="points">
              <mxPoint x="-639.53" y="683" />
              <mxPoint x="-639.53" y="683" />
            </Array>
          </mxGeometry>
        </mxCell>
        <mxCell id="vyGlclujmhHLnjYh4SEp-58" value="tensor : input_vector" style="edgeLabel;html=1;align=center;verticalAlign=middle;resizable=0;points=[];" vertex="1" connectable="0" parent="vyGlclujmhHLnjYh4SEp-57">
          <mxGeometry x="0.2969" y="1" relative="1" as="geometry">
            <mxPoint x="-39" y="-1" as="offset" />
          </mxGeometry>
        </mxCell>
        <mxCell id="vyGlclujmhHLnjYh4SEp-80" value="" style="group" vertex="1" connectable="0" parent="1">
          <mxGeometry x="-800" y="630" width="440" height="183" as="geometry" />
        </mxCell>
        <mxCell id="3a17f1ce550125da-7" value="" style="whiteSpace=wrap;html=1;shadow=1;fontSize=18;fillColor=#f5f5f5;strokeColor=#666666;" parent="vyGlclujmhHLnjYh4SEp-80" vertex="1">
          <mxGeometry x="80" y="73" width="270" height="110" as="geometry" />
        </mxCell>
        <mxCell id="vyGlclujmhHLnjYh4SEp-4" value="" style="edgeStyle=orthogonalEdgeStyle;rounded=0;orthogonalLoop=1;jettySize=auto;html=1;" edge="1" parent="vyGlclujmhHLnjYh4SEp-80">
          <mxGeometry relative="1" as="geometry">
            <mxPoint y="100.05882352941171" as="sourcePoint" />
            <mxPoint x="80" y="100.11111111111109" as="targetPoint" />
            <Array as="points">
              <mxPoint x="40" y="100" />
              <mxPoint x="40" y="100" />
            </Array>
          </mxGeometry>
        </mxCell>
        <mxCell id="vyGlclujmhHLnjYh4SEp-8" value="file_name" style="text;html=1;align=center;verticalAlign=middle;resizable=0;points=[];autosize=1;strokeColor=none;fillColor=none;" vertex="1" parent="vyGlclujmhHLnjYh4SEp-80">
          <mxGeometry y="70" width="80" height="30" as="geometry" />
        </mxCell>
        <mxCell id="vyGlclujmhHLnjYh4SEp-33" value="read_file.c" style="text;html=1;align=center;verticalAlign=middle;resizable=0;points=[];autosize=1;strokeColor=none;fillColor=none;" vertex="1" parent="vyGlclujmhHLnjYh4SEp-80">
          <mxGeometry x="70" y="50" width="80" height="30" as="geometry" />
        </mxCell>
        <mxCell id="vyGlclujmhHLnjYh4SEp-34" value="read_input_vector()" style="rounded=1;whiteSpace=wrap;html=1;" vertex="1" parent="vyGlclujmhHLnjYh4SEp-80">
          <mxGeometry x="85" y="90" width="120" height="88" as="geometry" />
        </mxCell>
        <mxCell id="vyGlclujmhHLnjYh4SEp-37" value="" style="edgeStyle=orthogonalEdgeStyle;rounded=0;orthogonalLoop=1;jettySize=auto;html=1;" edge="1" parent="vyGlclujmhHLnjYh4SEp-80">
          <mxGeometry relative="1" as="geometry">
            <mxPoint y="130.0588235294117" as="sourcePoint" />
            <mxPoint x="80" y="130.1111111111111" as="targetPoint" />
            <Array as="points">
              <mxPoint x="40" y="130" />
              <mxPoint x="40" y="130" />
            </Array>
          </mxGeometry>
        </mxCell>
        <mxCell id="vyGlclujmhHLnjYh4SEp-38" value="2d tensor" style="text;html=1;align=center;verticalAlign=middle;resizable=0;points=[];autosize=1;strokeColor=none;fillColor=none;" vertex="1" parent="vyGlclujmhHLnjYh4SEp-80">
          <mxGeometry x="5" y="100" width="70" height="30" as="geometry" />
        </mxCell>
        <mxCell id="vyGlclujmhHLnjYh4SEp-39" value="" style="edgeStyle=orthogonalEdgeStyle;rounded=0;orthogonalLoop=1;jettySize=auto;html=1;" edge="1" parent="vyGlclujmhHLnjYh4SEp-80">
          <mxGeometry relative="1" as="geometry">
            <mxPoint y="130.0588235294117" as="sourcePoint" />
            <mxPoint x="80" y="130.1111111111111" as="targetPoint" />
            <Array as="points">
              <mxPoint x="40" y="130" />
              <mxPoint x="40" y="130" />
            </Array>
          </mxGeometry>
        </mxCell>
        <mxCell id="vyGlclujmhHLnjYh4SEp-40" value="" style="edgeStyle=orthogonalEdgeStyle;rounded=0;orthogonalLoop=1;jettySize=auto;html=1;" edge="1" parent="vyGlclujmhHLnjYh4SEp-80">
          <mxGeometry relative="1" as="geometry">
            <mxPoint y="160.0588235294117" as="sourcePoint" />
            <mxPoint x="80" y="160.1111111111111" as="targetPoint" />
            <Array as="points">
              <mxPoint x="40" y="160" />
              <mxPoint x="40" y="160" />
            </Array>
          </mxGeometry>
        </mxCell>
        <mxCell id="vyGlclujmhHLnjYh4SEp-41" value="1d mask" style="text;html=1;align=center;verticalAlign=middle;resizable=0;points=[];autosize=1;strokeColor=none;fillColor=none;" vertex="1" parent="vyGlclujmhHLnjYh4SEp-80">
          <mxGeometry x="5" y="130" width="70" height="30" as="geometry" />
        </mxCell>
        <mxCell id="vyGlclujmhHLnjYh4SEp-42" value="read_params_from_bin()" style="rounded=1;whiteSpace=wrap;html=1;" vertex="1" parent="vyGlclujmhHLnjYh4SEp-80">
          <mxGeometry x="210" y="90" width="135" height="88" as="geometry" />
        </mxCell>
        <mxCell id="vyGlclujmhHLnjYh4SEp-43" value="" style="edgeStyle=orthogonalEdgeStyle;rounded=0;orthogonalLoop=1;jettySize=auto;html=1;" edge="1" parent="vyGlclujmhHLnjYh4SEp-80">
          <mxGeometry relative="1" as="geometry">
            <mxPoint x="430" y="103.05882352941171" as="sourcePoint" />
            <mxPoint x="350" y="103.11111111111109" as="targetPoint" />
            <Array as="points">
              <mxPoint x="390" y="103" />
              <mxPoint x="390" y="103" />
            </Array>
          </mxGeometry>
        </mxCell>
        <mxCell id="vyGlclujmhHLnjYh4SEp-44" value="file_name" style="text;html=1;align=center;verticalAlign=middle;resizable=0;points=[];autosize=1;strokeColor=none;fillColor=none;flipH=1;" vertex="1" parent="vyGlclujmhHLnjYh4SEp-80">
          <mxGeometry x="350" y="73" width="80" height="30" as="geometry" />
        </mxCell>
        <mxCell id="vyGlclujmhHLnjYh4SEp-45" value="" style="edgeStyle=orthogonalEdgeStyle;rounded=0;orthogonalLoop=1;jettySize=auto;html=1;" edge="1" parent="vyGlclujmhHLnjYh4SEp-80">
          <mxGeometry relative="1" as="geometry">
            <mxPoint x="430" y="133.0588235294117" as="sourcePoint" />
            <mxPoint x="350" y="133.1111111111111" as="targetPoint" />
            <Array as="points">
              <mxPoint x="390" y="133" />
              <mxPoint x="390" y="133" />
            </Array>
          </mxGeometry>
        </mxCell>
        <mxCell id="vyGlclujmhHLnjYh4SEp-46" value="float* param" style="text;html=1;align=center;verticalAlign=middle;resizable=0;points=[];autosize=1;strokeColor=none;fillColor=none;flipH=1;" vertex="1" parent="vyGlclujmhHLnjYh4SEp-80">
          <mxGeometry x="350" y="103" width="90" height="30" as="geometry" />
        </mxCell>
        <mxCell id="vyGlclujmhHLnjYh4SEp-47" value="" style="edgeStyle=orthogonalEdgeStyle;rounded=0;orthogonalLoop=1;jettySize=auto;html=1;" edge="1" parent="vyGlclujmhHLnjYh4SEp-80">
          <mxGeometry relative="1" as="geometry">
            <mxPoint x="430" y="133.0588235294117" as="sourcePoint" />
            <mxPoint x="350" y="133.1111111111111" as="targetPoint" />
            <Array as="points">
              <mxPoint x="390" y="133" />
              <mxPoint x="390" y="133" />
            </Array>
          </mxGeometry>
        </mxCell>
        <mxCell id="vyGlclujmhHLnjYh4SEp-48" value="" style="edgeStyle=orthogonalEdgeStyle;rounded=0;orthogonalLoop=1;jettySize=auto;html=1;" edge="1" parent="vyGlclujmhHLnjYh4SEp-80">
          <mxGeometry relative="1" as="geometry">
            <mxPoint x="430" y="163.0588235294117" as="sourcePoint" />
            <mxPoint x="350" y="163.1111111111111" as="targetPoint" />
            <Array as="points">
              <mxPoint x="390" y="163" />
              <mxPoint x="390" y="163" />
            </Array>
          </mxGeometry>
        </mxCell>
        <mxCell id="vyGlclujmhHLnjYh4SEp-49" value="int size" style="text;html=1;align=center;verticalAlign=middle;resizable=0;points=[];autosize=1;strokeColor=none;fillColor=none;flipH=1;" vertex="1" parent="vyGlclujmhHLnjYh4SEp-80">
          <mxGeometry x="360" y="133" width="60" height="30" as="geometry" />
        </mxCell>
        <mxCell id="vyGlclujmhHLnjYh4SEp-60" style="edgeStyle=elbowEdgeStyle;rounded=0;html=1;startArrow=none;startFill=0;jettySize=auto;orthogonalLoop=1;fontSize=18;" edge="1" parent="vyGlclujmhHLnjYh4SEp-80">
          <mxGeometry relative="1" as="geometry">
            <mxPoint x="280.47" y="90" as="sourcePoint" />
            <mxPoint x="280" as="targetPoint" />
            <Array as="points">
              <mxPoint x="280.47" y="53" />
              <mxPoint x="280.47" y="53" />
            </Array>
          </mxGeometry>
        </mxCell>
        <mxCell id="vyGlclujmhHLnjYh4SEp-61" value="param" style="edgeLabel;html=1;align=center;verticalAlign=middle;resizable=0;points=[];" vertex="1" connectable="0" parent="vyGlclujmhHLnjYh4SEp-60">
          <mxGeometry x="0.214" relative="1" as="geometry">
            <mxPoint y="15" as="offset" />
          </mxGeometry>
        </mxCell>
        <mxCell id="vyGlclujmhHLnjYh4SEp-82" value="" style="endArrow=none;html=1;rounded=0;" edge="1" parent="1">
          <mxGeometry width="50" height="50" relative="1" as="geometry">
            <mxPoint x="750" y="640" as="sourcePoint" />
            <mxPoint x="640" y="440" as="targetPoint" />
            <Array as="points">
              <mxPoint x="640" y="640" />
            </Array>
          </mxGeometry>
        </mxCell>
        <mxCell id="vyGlclujmhHLnjYh4SEp-83" value="layer" style="whiteSpace=wrap;html=1;shadow=1;fontSize=18;fillColor=#f5f5f5;strokeColor=#666666;" vertex="1" parent="1">
          <mxGeometry x="510" y="770" width="120" height="60" as="geometry" />
        </mxCell>
        <mxCell id="vyGlclujmhHLnjYh4SEp-85" value="mat_calc.c" style="whiteSpace=wrap;html=1;shadow=1;fontSize=18;fillColor=#f5f5f5;strokeColor=#666666;" vertex="1" parent="1">
          <mxGeometry x="50" y="110" width="120" height="150" as="geometry" />
        </mxCell>
        <mxCell id="vyGlclujmhHLnjYh4SEp-92" value="&lt;span style=&quot;font-size: 17px; text-wrap: wrap;&quot;&gt;type_ definition.c&lt;/span&gt;" style="text;html=1;align=center;verticalAlign=middle;resizable=0;points=[];autosize=1;strokeColor=none;fillColor=none;fontSize=17;" vertex="1" parent="1">
          <mxGeometry x="290" y="20" width="150" height="30" as="geometry" />
        </mxCell>
        <mxCell id="vyGlclujmhHLnjYh4SEp-93" value="&lt;font style=&quot;font-size: 19px;&quot;&gt;struct Tensor2D&lt;/font&gt;" style="rounded=1;whiteSpace=wrap;html=1;" vertex="1" parent="1">
          <mxGeometry x="330" y="60" width="180" height="30" as="geometry" />
        </mxCell>
        <mxCell id="vyGlclujmhHLnjYh4SEp-94" value="&lt;span style=&quot;font-size: 19px;&quot;&gt;struct Tensor1D&lt;/span&gt;" style="rounded=1;whiteSpace=wrap;html=1;" vertex="1" parent="1">
          <mxGeometry x="330" y="100" width="180" height="30" as="geometry" />
        </mxCell>
        <mxCell id="vyGlclujmhHLnjYh4SEp-95" value="&lt;font style=&quot;font-size: 19px;&quot;&gt;create_tensor()&lt;/font&gt;" style="rounded=1;whiteSpace=wrap;html=1;" vertex="1" parent="1">
          <mxGeometry x="330" y="140" width="180" height="30" as="geometry" />
        </mxCell>
        <mxCell id="vyGlclujmhHLnjYh4SEp-96" value="&lt;span style=&quot;font-size: 19px;&quot;&gt;create_tensor1d()&lt;/span&gt;" style="rounded=1;whiteSpace=wrap;html=1;" vertex="1" parent="1">
          <mxGeometry x="330" y="180" width="180" height="30" as="geometry" />
        </mxCell>
        <mxCell id="vyGlclujmhHLnjYh4SEp-98" value="" style="group" vertex="1" connectable="0" parent="1">
          <mxGeometry x="250" y="540" width="200" height="210" as="geometry" />
        </mxCell>
        <mxCell id="vyGlclujmhHLnjYh4SEp-84" value="" style="whiteSpace=wrap;html=1;shadow=1;fontSize=18;fillColor=none;strokeColor=#666666;" vertex="1" parent="vyGlclujmhHLnjYh4SEp-98">
          <mxGeometry y="40" width="200" height="170" as="geometry" />
        </mxCell>
        <mxCell id="vyGlclujmhHLnjYh4SEp-86" value="&lt;span style=&quot;font-size: 18px; text-wrap: wrap;&quot;&gt;mat_calc.c&lt;/span&gt;" style="text;html=1;align=center;verticalAlign=middle;resizable=0;points=[];autosize=1;strokeColor=none;fillColor=none;" vertex="1" parent="vyGlclujmhHLnjYh4SEp-98">
          <mxGeometry width="110" height="40" as="geometry" />
        </mxCell>
        <mxCell id="vyGlclujmhHLnjYh4SEp-87" value="&lt;font style=&quot;font-size: 19px;&quot;&gt;matmul()&lt;/font&gt;" style="rounded=1;whiteSpace=wrap;html=1;" vertex="1" parent="vyGlclujmhHLnjYh4SEp-98">
          <mxGeometry x="10" y="50" width="180" height="30" as="geometry" />
        </mxCell>
        <mxCell id="vyGlclujmhHLnjYh4SEp-88" value="&lt;font style=&quot;font-size: 19px;&quot;&gt;transpose()&lt;/font&gt;" style="rounded=1;whiteSpace=wrap;html=1;" vertex="1" parent="vyGlclujmhHLnjYh4SEp-98">
          <mxGeometry x="10" y="90" width="180" height="30" as="geometry" />
        </mxCell>
        <mxCell id="vyGlclujmhHLnjYh4SEp-90" value="&lt;font style=&quot;font-size: 19px;&quot;&gt;mat_adder()&lt;/font&gt;" style="rounded=1;whiteSpace=wrap;html=1;" vertex="1" parent="vyGlclujmhHLnjYh4SEp-98">
          <mxGeometry x="10" y="130" width="180" height="30" as="geometry" />
        </mxCell>
        <mxCell id="vyGlclujmhHLnjYh4SEp-91" value="&lt;font style=&quot;font-size: 19px;&quot;&gt;mat_deep_copy()&lt;/font&gt;" style="rounded=1;whiteSpace=wrap;html=1;" vertex="1" parent="vyGlclujmhHLnjYh4SEp-98">
          <mxGeometry x="10" y="170" width="180" height="30" as="geometry" />
        </mxCell>
        <mxCell id="vyGlclujmhHLnjYh4SEp-100" value="&lt;span style=&quot;font-size: 19px;&quot;&gt;free_tensor1d()&lt;/span&gt;" style="rounded=1;whiteSpace=wrap;html=1;" vertex="1" parent="1">
          <mxGeometry x="330" y="260" width="180" height="30" as="geometry" />
        </mxCell>
        <mxCell id="vyGlclujmhHLnjYh4SEp-101" value="&lt;font style=&quot;font-size: 19px;&quot;&gt;free_tensor()&lt;/font&gt;" style="rounded=1;whiteSpace=wrap;html=1;" vertex="1" parent="1">
          <mxGeometry x="330" y="220" width="180" height="30" as="geometry" />
        </mxCell>
        <mxCell id="vyGlclujmhHLnjYh4SEp-102" value="&lt;font style=&quot;font-size: 19px;&quot;&gt;print_tensor()&lt;/font&gt;" style="rounded=1;whiteSpace=wrap;html=1;" vertex="1" parent="1">
          <mxGeometry x="330" y="300" width="180" height="30" as="geometry" />
        </mxCell>
      </root>
    </mxGraphModel>
  </diagram>
</mxfile>
